# xmcd
#
# Track frame offsets:
#	150
#	11822
#	34912
#	55534
#	76784
#	106392
#	124039
#	155237
#	178569
#	203297
#
# Disc length: 2975 seconds
#
# Revision: 1
# Processed by: cddbd v1.5.2PL0 Copyright (c) Steve Scherf et al.
# Submitted via: audiograbber 1.83.01
#
DISCID=740b9d0a
DTITLE=Pablo Menendez - Havana Blues  mambo
DYEAR=2005
DGENRE=
TTITLE0=Mambo Influenciado
TTITLE1=Akete Oba Oba
TTITLE2=La Gitana
TTITLE3=Sueno Con Serpientes
TTITLE4=Grifo-Animal Mitologico
TTITLE5=Bonnie's Blues Mambo
TTITLE6='Round Midnight
TTITLE7=Quien Fuera
TTITLE8=Hijos de la Mezcla
TTITLE9=People Together
EXTD=
EXTT0=
EXTT1=
EXTT2=
EXTT3=
EXTT4=
EXTT5=
EXTT6=
EXTT7=
EXTT8=
EXTT9=
PLAYORDER=
